# xmcd
#
# Track frame offsets: 
#        150
#        14842
#        26368
#        41465
#        53672
#        66331
#        81457
#        98930
#        113915
#        124909
#        137266
#        147467
#
# Disc length: 2197 seconds
#
# Revision: 0
# Processed by: cddbd v1.5.2PL0 Copyright (c) Steve Scherf et al.
# Submitted via: ExactAudioCopy v0.95b4
#
DISCID=a908930c
DTITLE=Commander Cody - Lose it Tonight
DYEAR=1980
DGENRE=
TTITLE0=Lose it Tonight
TTITLE1=Two Triple Cheese, Side Order of Fries
TTITLE2=Either He's Wrong
TTITLE3=All Tore Up
TTITLE4=Get Your Love
TTITLE5=Go to Hell
TTITLE6=Sea Wolf
TTITLE7=Working Girls
TTITLE8=Jukebox Jury
TTITLE9=Who's Got the Rock
TTITLE10=Roll the Dice
TTITLE11=Buddy's Cafe
EXTD=
EXTT0=
EXTT1=
EXTT2=
EXTT3=
EXTT4=
EXTT5=
EXTT6=
EXTT7=
EXTT8=
EXTT9=
EXTT10=
EXTT11=
PLAYORDER=
